<?xml version="1.0" encoding="UTF-8"?>
<svg width="102px" height="71px" viewBox="0 0 102 71" version="1.1" xmlns="http://www.w3.org/2000/svg" xmlns:xlink="http://www.w3.org/1999/xlink">
    <!-- Generator: Sketch 63.1 (92452) - https://sketch.com -->
    <title>Group 2</title>
    <desc>Created with Sketch.</desc>
    <g id="Page-1" stroke="none" stroke-width="1" fill="none" fill-rule="evenodd">
        <g id="Chat" transform="translate(-218.000000, -379.000000)" fill-rule="nonzero">
            <g id="Group-2" transform="translate(218.858594, 379.000000)">
                <path d="M6.3984375,60.7960938 C7.26979167,60.7960938 8.07552083,60.4880208 8.815625,59.871875 C9.5265625,59.2885417 9.88203125,58.5429688 9.88203125,57.6351563 L9.88203125,57.6351563 L8.18671875,57.6351563 C8.18671875,58.3242188 7.98984375,58.8291667 7.59609375,59.15 C7.30442708,59.3869792 6.98541667,59.5328125 6.6390625,59.5875 C6.70833333,59.4270833 6.74296875,59.2338542 6.74296875,59.0078125 C6.74296875,58.7927083 6.70195313,58.5976562 6.61992188,58.4226562 C6.53789063,58.2476562 6.41119792,58.0945313 6.23984375,57.9632813 L6.23984375,57.9632813 C5.95182292,57.7263021 5.59270833,57.6078125 5.1625,57.6078125 C4.74322917,57.6078125 4.3859375,57.7427083 4.090625,58.0125 C3.7734375,58.296875 3.61484375,58.646875 3.61484375,59.0625 C3.61484375,59.7041667 3.93567708,60.1799479 4.57734375,60.4898437 L4.57734375,60.4898437 C4.99296875,60.6940104 5.6,60.7960938 6.3984375,60.7960938 Z M5.1515625,59.675 C5.00208333,59.675 4.87265625,59.6166667 4.76328125,59.5 L4.76328125,59.5 C4.70859375,59.434375 4.66484375,59.3632812 4.63203125,59.2867187 C4.59921875,59.2101562 4.5828125,59.1317708 4.5828125,59.0515625 C4.5828125,58.9822917 4.59830729,58.9111979 4.62929688,58.8382813 C4.66028646,58.7653646 4.70221354,58.6997396 4.75507813,58.6414062 C4.80794271,58.5830729 4.86809896,58.5356771 4.93554688,58.4992188 C5.00299479,58.4627604 5.075,58.4445313 5.1515625,58.4445313 C5.22083333,58.4445313 5.29283854,58.4609375 5.36757813,58.49375 C5.44231771,58.5265625 5.50976563,58.571224 5.56992188,58.6277344 C5.63007813,58.6842448 5.68020833,58.7489583 5.7203125,58.821875 C5.76041667,58.8947917 5.78046875,58.9713542 5.78046875,59.0515625 C5.78046875,59.1317708 5.76497396,59.2092448 5.73398438,59.2839844 C5.70299479,59.358724 5.66015625,59.4252604 5.60546875,59.4835938 C5.55078125,59.5419271 5.48424479,59.5884115 5.40585938,59.6230469 C5.32747396,59.6576823 5.24270833,59.675 5.1515625,59.675 Z M4.8890625,70 C5.49791667,70 5.93359375,69.8268229 6.19609375,69.4804688 C6.41848958,69.1851563 6.5296875,68.8315104 6.5296875,68.4195312 L6.5296875,68.4195312 L6.5296875,62.190625 L4.87265625,62.190625 L4.87265625,68.228125 C4.87265625,68.3666667 4.8453125,68.4705729 4.790625,68.5398437 C4.73958333,68.6127604 4.66119792,68.6492187 4.55546875,68.6492187 L4.55546875,68.6492187 L2.2421875,68.6492187 L2.2421875,67.5609375 C2.2421875,67.3786458 2.26861979,67.2200521 2.32148438,67.0851563 C2.37434896,66.9502604 2.45182292,66.8354167 2.55390625,66.740625 L2.55390625,66.740625 C2.72890625,66.5984375 2.98229167,66.5273438 3.3140625,66.5273438 L3.3140625,66.5273438 L4.09609375,66.5273438 L4.09609375,65.275 L3.346875,65.275 C3.09166667,65.275 2.821875,65.253125 2.5375,65.209375 C2.3515625,65.1838542 2.18932292,65.1328125 2.05078125,65.05625 C1.91223958,64.9796875 1.79648438,64.8858073 1.70351563,64.7746094 C1.61054688,64.6634115 1.54127604,64.541276 1.49570313,64.4082031 C1.45013021,64.2751302 1.42734375,64.1375 1.42734375,63.9953125 L1.42734375,63.9953125 L1.42734375,63.9734375 C1.43463542,63.9953125 1.44283854,64.0171875 1.45195313,64.0390625 C1.46106771,64.0609375 1.47109375,64.0846354 1.48203125,64.1101562 L1.48203125,64.1101562 C1.66796875,64.5986979 2.11822917,64.8429688 2.8328125,64.8429688 C3.15364583,64.8429688 3.43984375,64.7682292 3.69140625,64.61875 C4.09244792,64.3927083 4.29296875,64.0208333 4.29296875,63.503125 C4.29296875,63.04375 4.12161458,62.6828125 3.77890625,62.4203125 C3.46901042,62.1869792 3.06796875,62.0703125 2.57578125,62.0703125 C1.86848958,62.0703125 1.27786458,62.2489583 0.80390625,62.60625 C0.26796875,63.0182292 5.68434189e-14,63.5778646 5.68434189e-14,64.2851562 C5.68434189e-14,64.8466146 0.178645833,65.3005208 0.5359375,65.646875 C0.7328125,65.8328125 0.95703125,65.9658854 1.20859375,66.0460938 C1.14661458,66.0934896 1.09101563,66.1445312 1.04179688,66.1992188 C0.992578125,66.2539062 0.942447917,66.3158854 0.89140625,66.3851563 C0.669010417,66.6950521 0.5578125,67.1015625 0.5578125,67.6046875 L0.5578125,67.6046875 L0.5578125,68.6492187 L0.065625,68.6492187 L0.065625,70 L4.8890625,70 Z M2.81640625,63.9953125 C2.75078125,63.9953125 2.68515625,63.9834635 2.61953125,63.9597656 C2.55390625,63.9360677 2.49375,63.9023438 2.4390625,63.8585938 C2.384375,63.8148438 2.340625,63.7619792 2.3078125,63.7 C2.275,63.6380208 2.25859375,63.5705729 2.25859375,63.4976562 C2.25859375,63.4283854 2.27408854,63.3645833 2.30507813,63.30625 C2.33606771,63.2479167 2.37708333,63.196875 2.428125,63.153125 C2.47916667,63.109375 2.53841146,63.0747396 2.60585938,63.0492188 C2.67330729,63.0236979 2.74348958,63.0109375 2.81640625,63.0109375 C2.99869792,63.0109375 3.13723958,63.0510417 3.23203125,63.13125 C3.32682292,63.2114583 3.37421875,63.3335937 3.37421875,63.4976562 C3.37421875,63.5632813 3.3578125,63.6261719 3.325,63.6863281 C3.2921875,63.7464844 3.25026042,63.799349 3.19921875,63.8449219 C3.14817708,63.8904948 3.08893229,63.9269531 3.02148438,63.9542969 C2.95403646,63.9816406 2.88567708,63.9953125 2.81640625,63.9953125 Z M13.1523438,70 L13.1523438,63.83125 C13.1523438,63.3572917 13.0083333,62.9544271 12.7203125,62.6226562 C12.4140625,62.2726562 11.9984375,62.0976562 11.4734375,62.0976562 C11.3713542,62.0976562 11.2145833,62.1085937 11.003125,62.1304687 C10.8354167,62.1559896 10.6822917,62.2134115 10.54375,62.3027344 C10.4052083,62.3920573 10.2794271,62.51875 10.1664063,62.6828125 L10.1664063,62.6828125 C9.95494792,62.9635417 9.84921875,63.2697917 9.84921875,63.6015625 C9.84921875,64.0171875 9.996875,64.3671875 10.2921875,64.6515625 C10.5802083,64.9286458 10.9338542,65.0671875 11.353125,65.0671875 C11.3677083,65.0671875 11.386849,65.066276 11.4105469,65.0644531 C11.4342448,65.0626302 11.4679688,65.0598958 11.5117188,65.05625 L11.5117188,65.05625 L11.5117188,67.8453125 C11.3804688,67.6739583 11.2601563,67.5226563 11.1507813,67.3914062 C11.0414063,67.2601563 10.9447917,67.1453125 10.8609375,67.046875 C10.7078125,66.8901042 10.5528646,66.7378906 10.3960938,66.5902344 C10.2393229,66.4425781 10.0861979,66.303125 9.93671875,66.171875 C9.08359375,65.4171875 8.50572917,65.0398437 8.203125,65.0398437 L8.203125,65.0398437 L7.6890625,65.8601562 L8.1375,66.1335937 C8.22864583,66.1846354 8.41640625,66.346875 8.70078125,66.6203125 L8.70078125,66.6203125 L8.70078125,66.6148437 L8.72265625,66.6421875 L9.1875,67.1015625 C9.35885417,67.2875 9.52838542,67.4807292 9.69609375,67.68125 C9.86380208,67.8817708 10.0096354,68.0658854 10.1335938,68.2335938 C10.2356771,68.3830729 10.3213542,68.5106771 10.390625,68.6164063 C10.4598958,68.7221354 10.5164063,68.8114583 10.5601563,68.884375 C10.6768229,69.0520833 10.7679688,69.1860677 10.8335938,69.2863281 C10.8992188,69.3865885 10.9411458,69.453125 10.959375,69.4859375 C10.9848958,69.5333333 11.0122396,69.5834635 11.0414063,69.6363281 C11.0705729,69.6891927 11.0979167,69.7384115 11.1234375,69.7839844 C11.1489583,69.8295573 11.1717448,69.8714844 11.1917969,69.9097656 C11.211849,69.9480469 11.2273438,69.978125 11.2382813,70 L11.2382813,70 L13.1523438,70 Z M11.3585938,64.1429688 C11.2820313,64.1429688 11.2082031,64.1292969 11.1371094,64.1019531 C11.0660156,64.0746094 11.0049479,64.0363281 10.9539063,63.9871094 C10.9028646,63.9378906 10.861849,63.8813802 10.8308594,63.8175781 C10.7998698,63.753776 10.784375,63.6835938 10.784375,63.6070312 C10.784375,63.4429687 10.839974,63.3071615 10.9511719,63.1996094 C11.0623698,63.0920573 11.1981771,63.0382813 11.3585938,63.0382813 C11.4242188,63.0382813 11.4898438,63.0546875 11.5554688,63.0875 C11.6210938,63.1203125 11.6794271,63.163151 11.7304688,63.2160156 C11.7815104,63.2688802 11.822526,63.3290365 11.8535156,63.3964844 C11.8845052,63.4639323 11.9,63.5341146 11.9,63.6070312 C11.9,63.6690104 11.8854167,63.731901 11.85625,63.7957031 C11.8270833,63.8595052 11.7869792,63.9169271 11.7359375,63.9679688 C11.6848958,64.0190104 11.6265625,64.0609375 11.5609375,64.09375 C11.4953125,64.1265625 11.4278646,64.1429688 11.3585938,64.1429688 Z M18.7523438,70.1148437 C18.8033854,70.1148437 18.8535156,70.1111979 18.9027344,70.1039063 C18.9519531,70.0966146 19.0020833,70.0875 19.053125,70.0765625 C19.2390625,70.0583333 19.4167969,70.0082031 19.5863281,69.9261719 C19.7558594,69.8441406 19.9026042,69.7393229 20.0265625,69.6117188 C20.2817708,69.3346354 20.409375,68.9992187 20.409375,68.6054688 C20.409375,68.1861979 20.2635417,67.8361979 19.971875,67.5554687 C19.6802083,67.2710937 19.3283854,67.1289062 18.9164063,67.1289062 L18.9164063,67.1289062 L18.8289063,67.1289062 C18.8070313,67.1289062 18.7815104,67.1307292 18.7523438,67.134375 L18.7523438,67.134375 L18.7523438,58.6851562 C18.7523438,58.2622396 18.6338542,57.8976562 18.396875,57.5914062 C18.1161458,57.2414062 17.7552083,57.0664062 17.3140625,57.0664062 L17.3140625,57.0664062 L17.2675781,57.0664062 C17.247526,57.0664062 17.2283854,57.0682292 17.2101563,57.071875 L17.2101563,57.071875 L17.2210938,57.071875 L17.0078125,57.0828125 C16.8546875,57.1010417 16.6997396,57.1648437 16.5429688,57.2742187 C16.3861979,57.3835937 16.23125,57.5367187 16.078125,57.7335938 C16.0307292,57.7955729 15.9851563,57.8575521 15.9414063,57.9195312 C15.8976563,57.9815104 15.8557292,58.0471354 15.815625,58.1164063 C15.7171875,57.7773438 15.5658854,57.5066406 15.3617188,57.3042969 C15.1575521,57.1019531 14.8895833,56.9752604 14.5578125,56.9242188 L14.5578125,56.9242188 L13.9945313,58.40625 C14.4101563,58.45 14.6945313,58.5994792 14.8476563,58.8546875 C14.9934896,59.0880208 15.0882813,59.5036458 15.1320313,60.1015625 L15.1320313,60.1015625 L16.1984375,60.1015625 C16.209375,60.0723958 16.2221354,60.0359375 16.2367188,59.9921875 C16.2513021,59.9484375 16.2667969,59.9019531 16.2832031,59.8527344 C16.2996094,59.8035156 16.3160156,59.7542969 16.3324219,59.7050781 C16.3488281,59.6558594 16.3643229,59.6111979 16.3789063,59.5710937 C16.5028646,59.2247396 16.6523438,58.9184896 16.8273438,58.6523438 C16.9184896,58.5028646 16.9841146,58.428125 17.0242188,58.428125 C17.0315104,58.428125 17.0460938,58.4335938 17.0679688,58.4445313 C17.0861979,58.5138021 17.0980469,58.5666667 17.1035156,58.603125 C17.1089844,58.6395833 17.1117188,58.6669271 17.1117188,58.6851562 L17.1117188,58.6851562 L17.1117188,68.3703125 C17.1117188,68.6109375 17.1518229,68.8351562 17.2320313,69.0429688 C17.3122396,69.2507813 17.4289063,69.4403646 17.5820313,69.6117188 C17.8882813,69.9471354 18.2783854,70.1148437 18.7523438,70.1148437 Z M18.9109375,69.1851562 C18.8380208,69.1851562 18.7678385,69.16875 18.7003906,69.1359375 C18.6329427,69.103125 18.5727865,69.0602865 18.5199219,69.0074219 C18.4670573,68.9545573 18.4242188,68.8934896 18.3914063,68.8242188 C18.3585938,68.7549479 18.3421875,68.6820312 18.3421875,68.6054688 C18.3421875,68.5252604 18.3585938,68.4505208 18.3914063,68.38125 C18.4242188,68.3119792 18.4670573,68.2509115 18.5199219,68.1980469 C18.5727865,68.1451823 18.6329427,68.1032552 18.7003906,68.0722656 C18.7678385,68.041276 18.8380208,68.0257813 18.9109375,68.0257813 C18.9875,68.0257813 19.0613281,68.041276 19.1324219,68.0722656 C19.2035156,68.1032552 19.2664063,68.1460937 19.3210938,68.2007812 C19.3757813,68.2554687 19.4195313,68.3174479 19.4523438,68.3867188 C19.4851563,68.4559896 19.5015625,68.5289063 19.5015625,68.6054688 C19.5015625,68.6820312 19.4869792,68.7549479 19.4578125,68.8242188 C19.4286458,68.8934896 19.3876302,68.9545573 19.3347656,69.0074219 C19.281901,69.0602865 19.2199219,69.103125 19.1488281,69.1359375 C19.0777344,69.16875 18.9984375,69.1851562 18.9109375,69.1851562 Z M28.0328125,61.140625 L28.0328125,58.5101563 L26.5835938,58.5101563 L26.5835938,61.140625 L28.0328125,61.140625 Z M22.465625,70.1148437 C22.6479167,70.1148437 22.8174479,70.0984375 22.9742188,70.065625 C23.1309896,70.0328125 23.2713542,69.9854167 23.3953125,69.9234375 C23.7963542,69.715625 23.996875,69.3401042 23.996875,68.796875 L23.996875,68.796875 L23.996875,67.725 C24.15,67.76875 24.3049479,67.8361979 24.4617188,67.9273437 C24.6184896,68.0184896 24.7752604,68.1333333 24.9320313,68.271875 C25.0231771,68.3520833 25.1134115,68.446875 25.2027344,68.55625 C25.2920573,68.665625 25.3822917,68.7877604 25.4734375,68.9226562 L25.4734375,68.9226562 L25.9765625,69.6828125 C26.1588542,69.9307292 26.3557292,70.0546875 26.5671875,70.0546875 C26.99375,70.0546875 27.3236979,69.9033854 27.5570313,69.6007813 L27.5570313,69.6007813 L27.5351563,69.6226562 C27.7611979,69.4075521 27.8742188,68.9973958 27.8742188,68.3921875 L27.8742188,68.3921875 L27.8742188,62.190625 L26.2390625,62.190625 L26.2390625,62.190625 L26.2387587,67.6563368 C26.2383536,67.7106192 26.2375434,67.753559 26.2363281,67.7851562 C26.2345052,67.8325521 26.2335938,67.8617187 26.2335938,67.8726562 L26.2335938,67.8945312 C26.2044271,67.8179688 26.0986979,67.6940104 25.9164063,67.5226563 C25.7195313,67.3476563 25.5691406,67.211849 25.4652344,67.1152344 C25.3613281,67.0186198 25.3002604,66.9648437 25.2820313,66.9539062 C25.0632813,66.8007812 24.8436198,66.6786458 24.6230469,66.5875 C24.402474,66.4963542 24.19375,66.4361979 23.996875,66.4070312 L23.996875,66.4070312 L23.996875,63.83125 C23.996875,63.3390625 23.8528646,62.9325521 23.5648438,62.6117188 C23.2513021,62.2690104 22.8302083,62.0976562 22.3015625,62.0976562 C22.2067708,62.0976562 22.0536458,62.1085937 21.8421875,62.1304687 C21.5177083,62.1742187 21.2388021,62.3583333 21.0054688,62.6828125 C20.7976563,62.9744792 20.69375,63.2807292 20.69375,63.6015625 C20.69375,63.8130208 20.7302083,64.0044271 20.803125,64.1757812 C20.8760417,64.3471354 20.9835938,64.5039062 21.1257813,64.6460937 C21.4101563,64.9268229 21.7583333,65.0671875 22.1703125,65.0671875 L22.1703125,65.0671875 L22.2578125,65.0671875 C22.2869792,65.0671875 22.3143229,65.0653646 22.3398438,65.0617188 L22.3398438,65.0617188 L22.3398438,66.2921875 C22.2304688,66.3104167 22.1101563,66.3441406 21.9789063,66.3933594 C21.8476563,66.4425781 21.7200521,66.5 21.5960938,66.565625 C21.3044271,66.7260417 21.0829427,66.949349 20.9316406,67.2355469 C20.7803385,67.5217448 20.7046875,67.8690104 20.7046875,68.2773438 C20.7046875,68.4304688 20.7192708,68.5753906 20.7484375,68.7121094 C20.7776042,68.8488281 20.8195313,68.9791667 20.8742188,69.103125 L20.8742188,69.103125 C21.0893229,69.5953125 21.4411458,69.9106771 21.9296875,70.0492188 L21.9296875,70.0492188 C21.9989583,70.0674479 22.0791667,70.0829427 22.1703125,70.0957031 C22.2614583,70.1084635 22.3598958,70.1148437 22.465625,70.1148437 Z M22.1648438,64.1375 C22.0992188,64.1375 22.0335938,64.1229167 21.9679688,64.09375 C21.9023438,64.0645833 21.8440104,64.0253906 21.7929688,63.9761719 C21.7419271,63.9269531 21.7,63.8704427 21.6671875,63.8066406 C21.634375,63.7428385 21.6179688,63.6763021 21.6179688,63.6070312 C21.6179688,63.5304687 21.634375,63.4584635 21.6671875,63.3910156 C21.7,63.3235677 21.7428385,63.2643229 21.7957031,63.2132813 C21.8485677,63.1622396 21.9078125,63.121224 21.9734375,63.0902344 C22.0390625,63.0592448 22.1028646,63.04375 22.1648438,63.04375 C22.2450521,63.04375 22.3216146,63.0583333 22.3945313,63.0875 C22.4674479,63.1166667 22.5294271,63.1558594 22.5804688,63.2050781 C22.6315104,63.2542969 22.672526,63.3135417 22.7035156,63.3828125 C22.7345052,63.4520833 22.75,63.5268229 22.75,63.6070312 C22.75,63.6763021 22.7326823,63.7428385 22.6980469,63.8066406 C22.6634115,63.8704427 22.6178385,63.9269531 22.5613281,63.9761719 C22.5048177,64.0253906 22.4419271,64.0645833 22.3726563,64.09375 C22.3033854,64.1229167 22.2341146,64.1375 22.1648438,64.1375 Z M22.2304688,69.1085938 C22.1903646,69.1085938 22.1484375,69.091276 22.1046875,69.0566406 C22.0609375,69.0220052 22.0208333,68.9682292 21.984375,68.8953125 C21.9114583,68.7859375 21.875,68.5854167 21.875,68.29375 L21.875,68.29375 L21.875,68.1132812 C21.8786458,67.9966146 21.9096354,67.8826823 21.9679688,67.7714844 C22.0263021,67.6602865 22.1065104,67.55 22.2085938,67.440625 C22.2705729,67.4078125 22.3361979,67.3822917 22.4054688,67.3640625 L22.4054688,67.3640625 L22.4054688,68.9226562 C22.4054688,69.0466146 22.3471354,69.1085938 22.2304688,69.1085938 Z M37.2203125,60.9546875 L37.0179688,60.4898437 L37.0179688,57.5695313 L35.3828125,57.5695313 L35.3828125,58.4609375 C34.9453125,58.1802083 34.3856771,58.0398437 33.7039063,58.0398437 C32.8908854,58.0398437 32.2473958,58.2239583 31.7734375,58.5921875 C31.10625,59.1208333 30.7070313,59.8791667 30.5757813,60.8671875 C31.7169271,60.6630208 32.7596354,60.5609375 33.7039063,60.5609375 C34.6190104,60.5609375 35.4229167,60.6247396 36.115625,60.7523438 L36.115625,60.7523438 L37.2203125,60.9546875 Z M35.6835938,59.7460938 C35.3736979,59.6914062 35.0738281,59.6522135 34.7839844,59.6285156 C34.4941406,59.6048177 34.2106771,59.5929688 33.9335938,59.5929688 C33.6492188,59.5929688 33.349349,59.597526 33.0339844,59.6066406 C32.7186198,59.6157552 32.3786458,59.6257813 32.0140625,59.6367188 C32.0760417,59.5200521 32.144401,59.4134115 32.2191406,59.3167969 C32.2938802,59.2201823 32.3731771,59.1408854 32.4570313,59.0789062 C32.7231771,58.8783854 33.096875,58.778125 33.578125,58.778125 C34.0046875,58.778125 34.3938802,58.8574219 34.7457031,59.0160156 C35.097526,59.1746094 35.4101563,59.4179688 35.6835938,59.7460938 Z M31.2976563,70.1148437 C31.4799479,70.1148437 31.6494792,70.0984375 31.80625,70.065625 C31.9630208,70.0328125 32.1033854,69.9854167 32.2273438,69.9234375 C32.6283854,69.715625 32.8289063,69.3401042 32.8289063,68.796875 L32.8289063,68.796875 L32.8289063,67.725 C32.9820313,67.76875 33.1369792,67.8361979 33.29375,67.9273437 C33.4505208,68.0184896 33.6072917,68.1333333 33.7640625,68.271875 C33.8552083,68.3520833 33.9454427,68.446875 34.0347656,68.55625 C34.1240885,68.665625 34.2143229,68.7877604 34.3054688,68.9226562 L34.3054688,68.9226562 L34.8085938,69.6828125 C34.9908854,69.9307292 35.1877604,70.0546875 35.3992188,70.0546875 C35.8257813,70.0546875 36.1557292,69.9033854 36.3890625,69.6007813 L36.3890625,69.6007813 L36.3671875,69.6226562 C36.5932292,69.4075521 36.70625,68.9973958 36.70625,68.3921875 L36.70625,68.3921875 L36.70625,62.190625 L35.0710938,62.190625 L35.0710938,62.190625 L35.0707899,67.6563368 C35.0703848,67.7106192 35.0695747,67.753559 35.0683594,67.7851562 C35.0665365,67.8325521 35.065625,67.8617187 35.065625,67.8726562 L35.065625,67.8945312 C35.0364583,67.8179688 34.9307292,67.6940104 34.7484375,67.5226563 C34.5515625,67.3476563 34.4011719,67.211849 34.2972656,67.1152344 C34.1933594,67.0186198 34.1322917,66.9648437 34.1140625,66.9539062 C33.8953125,66.8007812 33.675651,66.6786458 33.4550781,66.5875 C33.2345052,66.4963542 33.0257813,66.4361979 32.8289063,66.4070312 L32.8289063,66.4070312 L32.8289063,63.83125 C32.8289063,63.3390625 32.6848958,62.9325521 32.396875,62.6117188 C32.0833333,62.2690104 31.6622396,62.0976562 31.1335938,62.0976562 C31.0388021,62.0976562 30.8856771,62.1085937 30.6742188,62.1304687 C30.3497396,62.1742187 30.0708333,62.3583333 29.8375,62.6828125 C29.6296875,62.9744792 29.5257813,63.2807292 29.5257813,63.6015625 C29.5257813,63.8130208 29.5622396,64.0044271 29.6351563,64.1757812 C29.7080729,64.3471354 29.815625,64.5039062 29.9578125,64.6460937 C30.2421875,64.9268229 30.5903646,65.0671875 31.0023438,65.0671875 L31.0023438,65.0671875 L31.0898438,65.0671875 C31.1190104,65.0671875 31.1463542,65.0653646 31.171875,65.0617188 L31.171875,65.0617188 L31.171875,66.2921875 C31.0625,66.3104167 30.9421875,66.3441406 30.8109375,66.3933594 C30.6796875,66.4425781 30.5520833,66.5 30.428125,66.565625 C30.1364583,66.7260417 29.914974,66.949349 29.7636719,67.2355469 C29.6123698,67.5217448 29.5367188,67.8690104 29.5367188,68.2773438 C29.5367188,68.4304688 29.5513021,68.5753906 29.5804688,68.7121094 C29.6096354,68.8488281 29.6515625,68.9791667 29.70625,69.103125 L29.70625,69.103125 C29.9213542,69.5953125 30.2731771,69.9106771 30.7617188,70.0492188 L30.7617188,70.0492188 C30.8309896,70.0674479 30.9111979,70.0829427 31.0023438,70.0957031 C31.0934896,70.1084635 31.1919271,70.1148437 31.2976563,70.1148437 Z M30.996875,64.1375 C30.93125,64.1375 30.865625,64.1229167 30.8,64.09375 C30.734375,64.0645833 30.6760417,64.0253906 30.625,63.9761719 C30.5739583,63.9269531 30.5320313,63.8704427 30.4992188,63.8066406 C30.4664063,63.7428385 30.45,63.6763021 30.45,63.6070312 C30.45,63.5304687 30.4664063,63.4584635 30.4992188,63.3910156 C30.5320313,63.3235677 30.5748698,63.2643229 30.6277344,63.2132813 C30.680599,63.1622396 30.7398438,63.121224 30.8054688,63.0902344 C30.8710938,63.0592448 30.9348958,63.04375 30.996875,63.04375 C31.0770833,63.04375 31.1536458,63.0583333 31.2265625,63.0875 C31.2994792,63.1166667 31.3614583,63.1558594 31.4125,63.2050781 C31.4635417,63.2542969 31.5045573,63.3135417 31.5355469,63.3828125 C31.5665365,63.4520833 31.5820313,63.5268229 31.5820313,63.6070312 C31.5820313,63.6763021 31.5647135,63.7428385 31.5300781,63.8066406 C31.4954427,63.8704427 31.4498698,63.9269531 31.3933594,63.9761719 C31.336849,64.0253906 31.2739583,64.0645833 31.2046875,64.09375 C31.1354167,64.1229167 31.0661458,64.1375 30.996875,64.1375 Z M31.0625,69.1085938 C31.0223958,69.1085938 30.9804688,69.091276 30.9367188,69.0566406 C30.8929688,69.0220052 30.8528646,68.9682292 30.8164063,68.8953125 C30.7434896,68.7859375 30.7070313,68.5854167 30.7070313,68.29375 L30.7070313,68.29375 L30.7070313,68.1132812 C30.7106771,67.9966146 30.7416667,67.8826823 30.8,67.7714844 C30.8583333,67.6602865 30.9385417,67.55 31.040625,67.440625 C31.1026042,67.4078125 31.1682292,67.3822917 31.2375,67.3640625 L31.2375,67.3640625 L31.2375,68.9226562 C31.2375,69.0466146 31.1791667,69.1085938 31.0625,69.1085938 Z M43.18125,63.74375 C43.3817708,63.9989583 43.4820313,64.3635417 43.4820313,64.8375 L43.4820313,64.8375 L43.4820313,70 L45.1226563,70 L45.1226563,64.7992188 C45.1226563,64.5549479 45.10625,64.3289063 45.0734375,64.1210938 C45.0588542,64.0299479 45.0342448,63.9369792 44.9996094,63.8421875 C44.964974,63.7473958 44.9221354,63.6489583 44.8710938,63.546875 C44.7289063,63.2770833 44.5539063,63.0455729 44.3460938,62.8523437 L44.3460938,62.8523437 C44.2367188,62.7466146 44.1182292,62.6518229 43.990625,62.5679687 C43.8630208,62.4841146 43.728125,62.4111979 43.5859375,62.3492187 L43.5859375,62.3492187 C43.1229167,62.1523438 42.5177083,62.0539063 41.7703125,62.0539063 C41.4567708,62.0539063 41.1641927,62.0858073 40.8925781,62.1496094 C40.6209635,62.2134115 40.3648438,62.3072917 40.1242188,62.43125 C39.6721354,62.6755208 39.2947917,62.9617187 38.9921875,63.2898437 C38.80625,63.4976562 38.6111979,63.6434896 38.4070313,63.7273437 L38.4070313,63.7273437 L38.303125,64.8429688 L39.3914063,64.9796875 C39.3476563,65.0197917 39.3002604,65.0708333 39.2492188,65.1328125 C39.0851563,65.3479167 39.003125,65.6268229 39.003125,65.9695312 L39.003125,65.9695312 L39.003125,70 L40.6382813,70 L40.6382813,65.9695312 C40.6382813,65.6815104 40.7276042,65.4645833 40.90625,65.31875 C41.0046875,65.2203125 41.2161458,65.1710938 41.540625,65.1710938 L41.540625,65.1710938 L41.6773438,64.1976563 C41.4257813,64.1611979 41.1541667,64.1192708 40.8625,64.071875 C40.5708333,64.0244792 40.2864583,63.9807292 40.009375,63.940625 L40.009375,63.940625 L40.0203125,63.9296875 C40.0640625,63.8895833 40.1296875,63.841276 40.2171875,63.7847656 C40.3046875,63.7282552 40.3994792,63.6690104 40.5015625,63.6070312 C40.6,63.5450521 40.6966146,63.4949219 40.7914063,63.4566406 C40.8861979,63.4183594 40.9755208,63.3882812 41.059375,63.3664063 C41.1651042,63.3408854 41.2772135,63.3208333 41.3957031,63.30625 C41.5141927,63.2916667 41.6390625,63.284375 41.7703125,63.284375 C42.459375,63.284375 42.9315104,63.4393229 43.1867188,63.7492188 L43.18125,63.74375 Z M52.4015625,70 L52.4015625,64.70625 C52.4015625,63.8348958 52.1208333,63.175 51.559375,62.7265625 C51.0015625,62.278125 50.2760417,62.0539063 49.3828125,62.0539063 C48.475,62.0539063 47.7677083,62.2653646 47.2609375,62.6882812 C47.0421875,62.8705729 46.8526042,63.0802083 46.6921875,63.3171875 C46.5317708,63.5541667 46.4005208,63.8257812 46.2984375,64.1320313 L46.2984375,64.1320313 L47.3921875,64.7992188 C47.5125,64.3289063 47.6820313,63.9898437 47.9007813,63.7820312 C48.2434896,63.4502604 48.7192708,63.284375 49.328125,63.284375 C49.9078125,63.284375 50.3143229,63.4557292 50.5476563,63.7984375 C50.6825521,63.9916667 50.75,64.3598958 50.75,64.903125 L50.75,64.903125 L50.75,70 L52.4015625,70 Z M57.4546875,70.109375 C57.9322917,70.109375 58.3242188,69.9434896 58.6304688,69.6117188 C58.9476563,69.2617188 59.10625,68.8479167 59.10625,68.3703125 L59.10625,68.3703125 L59.10625,65.865625 C59.10625,65.6177083 59.0388021,65.3697917 58.9039063,65.121875 L58.9039063,65.121875 C58.5830729,64.5494792 57.7518229,64.1557292 56.4101563,63.940625 C56.2096354,63.9114583 56.0127604,63.886849 55.8195313,63.8667969 C55.6263021,63.8467448 55.4476563,63.8330729 55.2835938,63.8257812 C55.3091146,63.7856771 55.3373698,63.7492187 55.3683594,63.7164062 C55.399349,63.6835938 55.4294271,63.6526042 55.4585938,63.6234375 L55.4585938,63.6234375 C55.6591146,63.4484375 55.9398438,63.3609375 56.3007813,63.3609375 C56.4101563,63.3609375 56.5423177,63.3764323 56.6972656,63.4074219 C56.8522135,63.4384115 57.0335938,63.4867187 57.2414063,63.5523437 C57.7554688,63.7127604 58.1565104,63.7929688 58.4445313,63.7929688 C58.4809896,63.7929688 58.527474,63.7902344 58.5839844,63.7847656 C58.6404948,63.7792969 58.7052083,63.7729167 58.778125,63.765625 C58.93125,63.7510417 59.0798177,63.7091146 59.2238281,63.6398438 C59.3678385,63.5705729 59.5018229,63.4794271 59.6257813,63.3664063 C59.7169271,63.2825521 59.7980469,63.185026 59.8691406,63.0738281 C59.9402344,62.9626302 59.9994792,62.8395833 60.046875,62.7046875 L60.046875,62.7046875 L58.8054688,62.059375 C58.6304688,62.3583333 58.3807292,62.5078125 58.05625,62.5078125 C57.9614583,62.5078125 57.8375,62.4923177 57.684375,62.4613281 C57.53125,62.4303385 57.3526042,62.3856771 57.1484375,62.3273438 C56.9260417,62.2653646 56.7236979,62.2161458 56.5414063,62.1796875 C56.3591146,62.1432292 56.2041667,62.125 56.0765625,62.125 C55.1322917,62.125 54.4486979,62.4567708 54.0257813,63.1203125 C53.7049479,63.6197917 53.5445313,64.1192708 53.5445313,64.61875 C53.5445313,64.6552083 53.5472656,64.7226562 53.5527344,64.8210937 C53.5582031,64.9195312 53.5846354,65.0197917 53.6320313,65.121875 C53.7486979,65.0635417 53.866276,65.0188802 53.9847656,64.9878906 C54.1032552,64.956901 54.2536458,64.9414062 54.4359375,64.9414062 C54.7166667,64.9414062 54.9983073,64.9514323 55.2808594,64.9714844 C55.5634115,64.9915365 55.8578125,65.0307292 56.1640625,65.0890625 C56.48125,65.1473958 56.7355469,65.2148438 56.9269531,65.2914063 C57.1183594,65.3679688 57.2505208,65.4518229 57.3234375,65.5429688 C57.3635417,65.5976562 57.3945313,65.6614583 57.4164063,65.734375 C57.4382813,65.8072917 57.4492188,65.8856771 57.4492188,65.9695312 L57.4492188,65.9695312 L57.4492188,67.134375 C57.4236979,67.1307292 57.3990885,67.1289062 57.3753906,67.1289062 L57.3753906,67.1289062 L57.3015625,67.1289062 C56.8822917,67.1289062 56.5304688,67.2710937 56.2460938,67.5554687 L56.2460938,67.5554687 C55.9617188,67.8325521 55.8195313,68.1825521 55.8195313,68.6054688 C55.8195313,68.9992187 55.9471354,69.3309896 56.2023438,69.6007813 L56.2023438,69.6007813 C56.5013021,69.9398438 56.91875,70.109375 57.4546875,70.109375 Z M57.3070313,69.1851562 C57.2231771,69.1851562 57.1447917,69.1696615 57.071875,69.1386719 C56.9989583,69.1076823 56.9360677,69.0666667 56.8832031,69.015625 C56.8303385,68.9645833 56.7884115,68.9035156 56.7574219,68.8324219 C56.7264323,68.7613281 56.7109375,68.6856771 56.7109375,68.6054688 C56.7109375,68.5252604 56.7264323,68.4496094 56.7574219,68.3785156 C56.7884115,68.3074219 56.83125,68.2463542 56.8859375,68.1953125 C56.940625,68.1442708 57.0044271,68.1032552 57.0773438,68.0722656 C57.1502604,68.041276 57.2268229,68.0257813 57.3070313,68.0257813 C57.3872396,68.0257813 57.4610677,68.041276 57.5285156,68.0722656 C57.5959635,68.1032552 57.6552083,68.1460937 57.70625,68.2007812 C57.7572917,68.2554687 57.7973958,68.3174479 57.8265625,68.3867188 C57.8557292,68.4559896 57.8703125,68.5289063 57.8703125,68.6054688 C57.8703125,68.6856771 57.8557292,68.7604167 57.8265625,68.8296875 C57.7973958,68.8989583 57.7572917,68.960026 57.70625,69.0128906 C57.6552083,69.0657552 57.5959635,69.1076823 57.5285156,69.1386719 C57.4610677,69.1696615 57.3872396,69.1851562 57.3070313,69.1851562 Z M63.0492188,70.0765625 C63.1440104,70.0765625 63.2953125,70.065625 63.503125,70.04375 C63.8239583,69.9927083 64.0992188,69.8085938 64.3289063,69.4914063 C64.4273438,69.3492187 64.5039063,69.2015625 64.5585938,69.0484375 C64.6132813,68.8953125 64.640625,68.7403646 64.640625,68.5835937 C64.640625,68.1679688 64.4947917,67.8143229 64.203125,67.5226563 L64.203125,67.5226563 C63.91875,67.2309896 63.5651042,67.0851563 63.1421875,67.0851563 C63.0911458,67.0851563 63.04375,67.0869792 63,67.090625 C62.95625,67.0942708 62.9088542,67.0997396 62.8578125,67.1070312 C62.8505208,67.0486979 62.846875,66.9894531 62.846875,66.9292969 L62.846875,66.9292969 L62.846875,66.7679688 C62.846875,66.6148438 62.8532552,66.478125 62.8660156,66.3578125 C62.878776,66.2375 62.9015625,66.1299479 62.934375,66.0351562 L62.934375,66.0351562 C63.0473958,65.6778646 63.2588542,65.4992188 63.56875,65.4992188 C64.1010417,65.4992188 64.6132813,65.9950521 65.1054688,66.9867188 C65.5065104,67.7997396 65.7070313,68.5088542 65.7070313,69.1140625 L65.7070313,69.1140625 L65.7070313,70 L67.3476563,70 L67.3476563,64.70625 C67.3476563,64.334375 67.2783854,63.9716146 67.1398438,63.6179687 L67.1398438,63.6179687 C67.1070313,63.5414063 67.0723958,63.4675781 67.0359375,63.3964844 C66.9994792,63.3253906 66.9611979,63.2588542 66.9210938,63.196875 L66.9210938,63.196875 L67.06875,63.109375 C67.5791667,62.7885417 67.834375,62.3364583 67.834375,61.753125 L67.834375,61.753125 L66.10625,61.315625 C66.10625,61.6984375 66.0588542,61.9536458 65.9640625,62.08125 C65.8984375,62.1614583 65.8255208,62.2380208 65.7453125,62.3109375 C65.5192708,62.2234375 65.2667969,62.158724 64.9878906,62.1167969 C64.7089844,62.0748698 64.3981771,62.0539063 64.0554688,62.0539063 C63.6398438,62.0539063 63.2661458,62.0921875 62.934375,62.16875 C62.7447917,62.2161458 62.5688802,62.268099 62.4066406,62.3246094 C62.244401,62.3811198 62.1013021,62.4403646 61.9773438,62.5023438 C61.7111979,62.6335938 61.4541667,62.8213542 61.20625,63.065625 L61.20625,63.065625 L60.6101563,63.8039063 L61.6765625,64.640625 C61.8369792,64.1885417 62.0994792,63.853125 62.4640625,63.634375 C62.8322917,63.4010417 63.3518229,63.284375 64.0226563,63.284375 C64.7408854,63.284375 65.2203125,63.459375 65.4609375,63.809375 L65.4609375,63.809375 C65.5411458,63.9223958 65.6022135,64.0700521 65.6441406,64.2523438 C65.6860677,64.4346354 65.7070313,64.6515625 65.7070313,64.903125 L65.7070313,64.903125 L65.7070313,65.6742188 C65.3460938,65.1236979 64.9596354,64.7481771 64.5476563,64.5476562 C64.1320313,64.3507813 63.7382813,64.2523438 63.3664063,64.2523438 C63.0346354,64.2523438 62.7320313,64.3216146 62.4585938,64.4601563 C62.1851563,64.5986979 61.9445313,64.8010417 61.7367188,65.0671875 C61.5617188,65.3078125 61.4268229,65.625 61.3320313,66.01875 C61.2372396,66.4125 61.1898438,66.8809896 61.1898438,67.4242188 C61.1898438,68.4486979 61.3794271,69.1505208 61.7585938,69.5296875 L61.7585938,69.5296875 C62.1085938,69.8942708 62.5388021,70.0765625 63.0492188,70.0765625 Z M63.1367188,69.1523438 C63.0638021,69.1523438 62.9954427,69.136849 62.9316406,69.1058594 C62.8678385,69.0748698 62.8113281,69.0338542 62.7621094,68.9828125 C62.7128906,68.9317708 62.6736979,68.8716146 62.6445313,68.8023437 C62.6153646,68.7330729 62.6007813,68.6601562 62.6007813,68.5835937 C62.6007813,68.5106771 62.6153646,68.4395833 62.6445313,68.3703125 C62.6736979,68.3010417 62.7128906,68.2390625 62.7621094,68.184375 C62.8113281,68.1296875 62.8678385,68.0859375 62.9316406,68.053125 C62.9954427,68.0203125 63.0638021,68.0039062 63.1367188,68.0039062 C63.2169271,68.0039062 63.2916667,68.019401 63.3609375,68.0503906 C63.4302083,68.0813802 63.4903646,68.1233073 63.5414063,68.1761719 C63.5924479,68.2290365 63.6325521,68.2901042 63.6617188,68.359375 C63.6908854,68.4286458 63.7054688,68.5033854 63.7054688,68.5835937 C63.7054688,68.7440104 63.6507813,68.8789062 63.5414063,68.9882812 C63.4320313,69.0976562 63.2971354,69.1523438 63.1367188,69.1523438 Z M74.76875,70.109375 C75.1989583,70.065625 75.5434896,69.8942708 75.8023438,69.5953125 C76.0502604,69.3145833 76.1742188,68.9572917 76.1742188,68.5234375 C76.1742188,68.1953125 76.0375,67.8799479 75.7640625,67.5773438 C75.7276042,67.5408854 75.6893229,67.50625 75.6492188,67.4734375 C75.6091146,67.440625 75.5671875,67.4078125 75.5234375,67.375 C75.7677083,67.24375 75.8898438,67.0341146 75.8898438,66.7460938 L75.8898438,66.7460938 L75.8898438,62.190625 L74.221875,62.190625 L74.221875,66.609375 C74.221875,66.6932292 74.1070313,66.7661458 73.8773438,66.828125 C73.7570313,66.8572917 73.6367188,66.8873698 73.5164063,66.9183594 C73.3960938,66.949349 73.2757813,66.9848958 73.1554688,67.025 C73.0351563,67.0651042 72.9139323,67.1115885 72.7917969,67.1644531 C72.6696615,67.2173177 72.5447917,67.2783854 72.4171875,67.3476562 C72.3296875,67.3986979 72.2494792,67.4497396 72.1765625,67.5007812 C72.1036458,67.5518229 72.034375,67.6101563 71.96875,67.6757812 L71.96875,67.6757812 L71.96875,63.83125 C71.96875,63.3390625 71.8247396,62.9325521 71.5367188,62.6117188 C71.2268229,62.2690104 70.8057292,62.0976562 70.2734375,62.0976562 C70.0619792,62.0976562 69.858724,62.1322917 69.6636719,62.2015625 C69.4686198,62.2708333 69.2963542,62.3710938 69.146875,62.5023438 C68.9973958,62.6335938 68.8779948,62.7921875 68.7886719,62.978125 C68.699349,63.1640625 68.6546875,63.371875 68.6546875,63.6015625 C68.6546875,64.0098958 68.8005208,64.35625 69.0921875,64.640625 C69.3875,64.925 69.7375,65.0671875 70.1421875,65.0671875 L70.1421875,65.0671875 L70.2269531,65.0671875 C70.2542969,65.0671875 70.2825521,65.0653646 70.3117188,65.0617188 L70.3117188,65.0617188 L70.3117188,70 L71.9085938,70 C72.0872396,69.4604167 72.3041667,69.0484375 72.559375,68.7640625 C72.6651042,68.64375 72.7690104,68.5416667 72.8710938,68.4578125 C72.9731771,68.3739583 73.0716146,68.3065104 73.1664063,68.2554687 C73.1445313,68.3830729 73.1335938,68.5416667 73.1335938,68.73125 C73.1554688,68.8989583 73.1983073,69.0548177 73.2621094,69.1988281 C73.3259115,69.3428385 73.4070313,69.475 73.5054688,69.5953125 L73.5054688,69.5953125 C73.7898438,69.9380208 74.2109375,70.109375 74.76875,70.109375 Z M70.1367188,64.1976563 C70.0601563,64.1976563 69.9863281,64.18125 69.9152344,64.1484375 C69.8441406,64.115625 69.78125,64.071875 69.7265625,64.0171875 C69.671875,63.9625 69.6272135,63.8996094 69.5925781,63.8285156 C69.5579427,63.7574219 69.540625,63.6835938 69.540625,63.6070312 C69.540625,63.5231771 69.5579427,63.4438802 69.5925781,63.3691406 C69.6272135,63.294401 69.6727865,63.2278646 69.7292969,63.1695312 C69.7858073,63.1111979 69.8496094,63.065625 69.9207031,63.0328125 C69.9917969,63 70.0638021,62.9835938 70.1367188,62.9835938 C70.2242188,62.9835938 70.30625,62.9990885 70.3828125,63.0300781 C70.459375,63.0610677 70.5259115,63.1048177 70.5824219,63.1613281 C70.6389323,63.2178385 70.6835938,63.284375 70.7164063,63.3609375 C70.7492188,63.4375 70.765625,63.5195312 70.765625,63.6070312 C70.765625,63.6799479 70.7483073,63.7519531 70.7136719,63.8230469 C70.6790365,63.8941406 70.6334635,63.9570312 70.5769531,64.0117188 C70.5204427,64.0664062 70.4539063,64.1110677 70.3773438,64.1457031 C70.3007813,64.1803385 70.2205729,64.1976563 70.1367188,64.1976563 Z M74.6539063,69.278125 C74.2200521,69.278125 74.003125,69.0739583 74.003125,68.665625 C74.003125,68.1916667 74.2291667,67.9546875 74.68125,67.9546875 C75.1041667,67.9546875 75.315625,68.1916667 75.315625,68.665625 C75.315625,68.7494792 75.2983073,68.828776 75.2636719,68.9035156 C75.2290365,68.9782552 75.1816406,69.0429688 75.1214844,69.0976562 C75.0613281,69.1523438 74.9911458,69.1960938 74.9109375,69.2289063 C74.8307292,69.2617188 74.7450521,69.278125 74.6539063,69.278125 Z M80.6367188,63.83125 C80.6367188,63.35 80.4945313,62.9453125 80.2101563,62.6171875 C79.9039063,62.2708333 79.4809896,62.0976562 78.9414063,62.0976562 C78.8466146,62.0976562 78.6934896,62.1085937 78.4820313,62.1304687 C78.3216146,62.1559896 78.1721354,62.2143229 78.0335938,62.3054687 C77.8950521,62.3966146 77.7692708,62.5242187 77.65625,62.6882812 C77.5578125,62.8341146 77.4830729,62.9817708 77.4320313,63.13125 C77.3809896,63.2807292 77.3554688,63.4375 77.3554688,63.6015625 C77.3554688,64.00625 77.4976563,64.3507812 77.7820313,64.6351563 C78.0700521,64.9231771 78.4127604,65.0671875 78.8101563,65.0671875 C78.8283854,65.0671875 78.8539063,65.066276 78.8867188,65.0644531 C78.9195313,65.0626302 78.9578125,65.0598958 79.0015625,65.05625 L79.0015625,65.05625 L79.0015625,70 L80.6367188,70 C80.6367188,69.9052083 80.6467448,69.7757813 80.6667969,69.6117188 C80.686849,69.4476563 80.7151042,69.2690104 80.7515625,69.0757812 C80.7989583,68.8315104 80.8527344,68.5826823 80.9128906,68.3292969 C80.9730469,68.0759115 81.036849,67.824349 81.1042969,67.5746094 C81.1717448,67.3248698 81.24375,67.080599 81.3203125,66.8417969 C81.396875,66.6029948 81.4770833,66.3760417 81.5609375,66.1609375 C81.6375,65.9494792 81.7313802,65.7197917 81.8425781,65.471875 C81.953776,65.2239583 82.0731771,64.96875 82.2007813,64.70625 C82.3611979,64.3963542 82.5015625,64.1429688 82.621875,63.9460937 C82.7421875,63.7492188 82.8278646,63.6489583 82.8789063,63.6453125 C83.1013021,63.6416667 83.2125,63.7692708 83.2125,64.028125 L83.2125,64.028125 L83.2125,70 L84.8476563,70 L84.8476563,64.1484375 C84.8476563,63.5723958 84.678125,63.0929688 84.3390625,62.7101563 C83.978125,62.3091146 83.5096354,62.1085938 82.9335938,62.1085938 C82.6638021,62.1085938 82.4414063,62.1705729 82.2664063,62.2945312 C82.1643229,62.3638021 82.0130208,62.5278646 81.8125,62.7867187 L81.8125,62.7867187 C81.6046875,63.0492187 81.4032552,63.3636719 81.2082031,63.7300781 C81.013151,64.0964844 80.8226563,64.5221354 80.6367188,65.0070313 L80.6364063,65.007 L80.6367188,63.83125 Z M78.8046875,64.1484375 C78.6588542,64.1484375 78.53125,64.0919271 78.421875,63.9789063 L78.421875,63.9789063 C78.3125,63.8658854 78.2578125,63.7419271 78.2578125,63.6070312 C78.2578125,63.5304687 78.2733073,63.4566406 78.3042969,63.3855469 C78.3352865,63.3144531 78.3772135,63.2533854 78.4300781,63.2023438 C78.4829427,63.1513021 78.5421875,63.1102865 78.6078125,63.0792969 C78.6734375,63.0483073 78.7390625,63.0328125 78.8046875,63.0328125 C78.8848958,63.0328125 78.9605469,63.0473958 79.0316406,63.0765625 C79.1027344,63.1057292 79.1638021,63.1458333 79.2148438,63.196875 C79.2658854,63.2479167 79.306901,63.3089844 79.3378906,63.3800781 C79.3688802,63.4511719 79.384375,63.5268229 79.384375,63.6070312 C79.384375,63.6763021 79.3688802,63.7428385 79.3378906,63.8066406 C79.306901,63.8704427 79.2640625,63.9278646 79.209375,63.9789063 C79.1546875,64.0299479 79.0927083,64.0709635 79.0234375,64.1019531 C78.9541667,64.1329427 78.88125,64.1484375 78.8046875,64.1484375 Z M92.2632813,70.109375 C92.6934896,70.065625 93.0380208,69.8942708 93.296875,69.5953125 C93.5447917,69.3145833 93.66875,68.9572917 93.66875,68.5234375 C93.66875,68.1953125 93.5320313,67.8799479 93.2585938,67.5773438 C93.2221354,67.5408854 93.1838542,67.50625 93.14375,67.4734375 C93.1036458,67.440625 93.0617188,67.4078125 93.0179688,67.375 C93.2622396,67.24375 93.384375,67.0341146 93.384375,66.7460938 L93.384375,66.7460938 L93.384375,62.190625 L91.7164063,62.190625 L91.7164063,66.609375 C91.7164063,66.6932292 91.6015625,66.7661458 91.371875,66.828125 C91.2515625,66.8572917 91.13125,66.8873698 91.0109375,66.9183594 C90.890625,66.949349 90.7703125,66.9848958 90.65,67.025 C90.5296875,67.0651042 90.4084635,67.1115885 90.2863281,67.1644531 C90.1641927,67.2173177 90.0393229,67.2783854 89.9117188,67.3476562 C89.8242188,67.3986979 89.7440104,67.4497396 89.6710938,67.5007812 C89.5981771,67.5518229 89.5289063,67.6101563 89.4632813,67.6757812 L89.4632813,67.6757812 L89.4632813,63.83125 C89.4632813,63.3390625 89.3192708,62.9325521 89.03125,62.6117188 C88.7213542,62.2690104 88.3002604,62.0976562 87.7679688,62.0976562 C87.5565104,62.0976562 87.3532552,62.1322917 87.1582031,62.2015625 C86.963151,62.2708333 86.7908854,62.3710938 86.6414063,62.5023438 C86.4919271,62.6335938 86.372526,62.7921875 86.2832031,62.978125 C86.1938802,63.1640625 86.1492188,63.371875 86.1492188,63.6015625 C86.1492188,64.0098958 86.2950521,64.35625 86.5867188,64.640625 C86.8820313,64.925 87.2320313,65.0671875 87.6367188,65.0671875 L87.6367188,65.0671875 L87.7214844,65.0671875 C87.7488281,65.0671875 87.7770833,65.0653646 87.80625,65.0617188 L87.80625,65.0617188 L87.80625,70 L89.403125,70 C89.5817708,69.4604167 89.7986979,69.0484375 90.0539063,68.7640625 C90.1596354,68.64375 90.2635417,68.5416667 90.365625,68.4578125 C90.4677083,68.3739583 90.5661458,68.3065104 90.6609375,68.2554687 C90.6390625,68.3830729 90.628125,68.5416667 90.628125,68.73125 C90.65,68.8989583 90.6928385,69.0548177 90.7566406,69.1988281 C90.8204427,69.3428385 90.9015625,69.475 91,69.5953125 L91,69.5953125 C91.284375,69.9380208 91.7054688,70.109375 92.2632813,70.109375 Z M87.63125,64.1976563 C87.5546875,64.1976563 87.4808594,64.18125 87.4097656,64.1484375 C87.3386719,64.115625 87.2757813,64.071875 87.2210938,64.0171875 C87.1664063,63.9625 87.1217448,63.8996094 87.0871094,63.8285156 C87.052474,63.7574219 87.0351563,63.6835938 87.0351563,63.6070312 C87.0351563,63.5231771 87.052474,63.4438802 87.0871094,63.3691406 C87.1217448,63.294401 87.1673177,63.2278646 87.2238281,63.1695312 C87.2803385,63.1111979 87.3441406,63.065625 87.4152344,63.0328125 C87.4863281,63 87.5583333,62.9835938 87.63125,62.9835938 C87.71875,62.9835938 87.8007813,62.9990885 87.8773438,63.0300781 C87.9539063,63.0610677 88.0204427,63.1048177 88.0769531,63.1613281 C88.1334635,63.2178385 88.178125,63.284375 88.2109375,63.3609375 C88.24375,63.4375 88.2601563,63.5195312 88.2601563,63.6070312 C88.2601563,63.6799479 88.2428385,63.7519531 88.2082031,63.8230469 C88.1735677,63.8941406 88.1279948,63.9570312 88.0714844,64.0117188 C88.014974,64.0664062 87.9484375,64.1110677 87.871875,64.1457031 C87.7953125,64.1803385 87.7151042,64.1976563 87.63125,64.1976563 Z M92.1484375,69.278125 C91.7145833,69.278125 91.4976563,69.0739583 91.4976563,68.665625 C91.4976563,68.1916667 91.7236979,67.9546875 92.1757813,67.9546875 C92.5986979,67.9546875 92.8101563,68.1916667 92.8101563,68.665625 C92.8101563,68.7494792 92.7928385,68.828776 92.7582031,68.9035156 C92.7235677,68.9782552 92.6761719,69.0429688 92.6160156,69.0976562 C92.5558594,69.1523438 92.4856771,69.1960938 92.4054688,69.2289063 C92.3252604,69.2617188 92.2395833,69.278125 92.1484375,69.278125 Z M100.685156,70 L100.685156,64.70625 C100.685156,63.8348958 100.404427,63.175 99.8429688,62.7265625 C99.2851563,62.278125 98.5596354,62.0539063 97.6664063,62.0539063 C96.7585938,62.0539063 96.0513021,62.2653646 95.5445313,62.6882812 C95.3257813,62.8705729 95.1361979,63.0802083 94.9757813,63.3171875 C94.8153646,63.5541667 94.6841146,63.8257812 94.5820313,64.1320313 L94.5820313,64.1320313 L95.6757813,64.7992188 C95.7960938,64.3289063 95.965625,63.9898437 96.184375,63.7820312 C96.5270833,63.4502604 97.0028646,63.284375 97.6117188,63.284375 C98.1914063,63.284375 98.5979167,63.4557292 98.83125,63.7984375 C98.9661458,63.9916667 99.0335938,64.3598958 99.0335938,64.903125 L99.0335938,64.903125 L99.0335938,70 L100.685156,70 Z" id="ยงไมมการสนทนา" fill="#C6CDDE"></path>
                <g id="question" transform="translate(25.141406, 0.000000)" fill="#DDE0E7">
                    <path d="M50,33.8378906 C50,27.6332855 46.440506,22.095871 41.1094666,19.4023133 C40.9439087,31.2988281 31.2988281,40.9439087 19.4023133,41.1094666 C22.095871,46.440506 27.6332855,50 33.8378906,50 C36.7469787,50 39.5759582,49.225235 42.061615,47.7531434 L49.9294281,49.9294281 L47.7531434,42.061615 C49.225235,39.5759582 50,36.7469787 50,33.8378906 L50,33.8378906 Z" id="Path"></path>
                    <path d="M38.1835938,19.0917969 C38.1835938,8.56437686 29.6192169,0 19.0917969,0 C8.56437686,0 0,8.56437686 0,19.0917969 C0,22.5227355 0.913238477,25.863266 2.6473999,28.7960053 L0.0701904297,38.1130219 L9.38758848,35.5361938 C12.3203277,37.2703553 15.6608582,38.1835938 19.0917969,38.1835938 C29.6192169,38.1835938 38.1835938,29.6192169 38.1835938,19.0917969 Z M16.1621094,14.6484375 L13.2324219,14.6484375 C13.2324219,11.4173889 15.8607482,8.7890625 19.0917969,8.7890625 C22.3228455,8.7890625 24.9511719,11.4173889 24.9511719,14.6484375 C24.9511719,16.2883759 24.256897,17.8646088 23.0457306,18.9723969 L20.5566406,21.2505341 L20.5566406,23.5351562 L17.6269531,23.5351562 L17.6269531,19.9604034 L21.0678101,16.8109894 C21.6827393,16.2483215 22.0214844,15.4804229 22.0214844,14.6484375 C22.0214844,13.0329132 20.7073212,11.71875 19.0917969,11.71875 C17.4762726,11.71875 16.1621094,13.0329132 16.1621094,14.6484375 Z M17.6269531,26.4648438 L20.5566406,26.4648438 L20.5566406,29.3945312 L17.6269531,29.3945312 L17.6269531,26.4648438 Z" id="Shape"></path>
                </g>
            </g>
        </g>
    </g>
</svg>